Coordinates
version=1
nRows=22
nColumns=18
inDegrees=yes

Units are S.I. units (second, meters, Newtons, ...)
If the header above contains a line with 'inDegrees', this indicates whether rotational values are in degrees (yes) or radians (no).

endheader
time	ground_thorax_rot_x	ground_thorax_rot_y	ground_thorax_rot_z	ground_thorax_tx	ground_thorax_ty	ground_thorax_tz	clav_prot	clav_elev	scapula_abduction	scapula_elevation	scapula_upward_rot	scapula_winging	plane_elv	shoulder_elv	axial_rot	elbow_flexion	pro_sup
      3.93000000	     -2.05004425	    -12.81578945	    -13.28867573	      0.00000000	      0.00000000	      0.00000000	    -44.30319899	      7.80528171	     -0.00816599	     -2.67669248	     82.39219581	    -11.68375078	     27.48155873	     89.31705468	     -9.46395219	      0.00000000	     34.32000000
      3.94000000	     -1.81884885	    -12.58337241	    -13.11064556	      0.00000000	      0.00000000	      0.00000000	    -44.56153549	      8.01862475	     -0.42858058	     -2.54287851	     82.48057604	    -11.89646457	     27.54907529	     89.11069090	     -9.49616428	      0.00000000	     34.32000000
      3.95000000	     -1.89096384	    -12.39879449	    -13.17371195	      0.00000000	      0.00000000	      0.00000000	    -44.71848151	      7.83617432	     -0.68535430	     -2.68537930	     82.43262261	    -11.95215327	     27.37307495	     88.98533545	     -9.21310442	      0.00000000	     34.32000000
      3.96000000	     -2.02913808	    -12.25482870	    -13.22568512	      0.00000000	      0.00000000	      0.00000000	    -44.79826672	      7.74048866	     -0.87262661	     -2.76840947	     82.33234259	    -11.99183574	     26.91672713	     88.89373473	     -8.94140608	      0.00000000	     34.32000000
      3.97000000	     -1.99615214	    -12.30448154	    -13.11805720	      0.00000000	      0.00000000	      0.00000000	    -44.81473911	      8.00746541	     -1.02791307	     -2.59760081	     82.25035242	    -12.09371262	     26.50730487	     88.85387686	     -9.03325420	      0.00000000	     34.32000000
      3.98000000	     -1.92748435	    -12.39636719	    -13.05249828	      0.00000000	      0.00000000	      0.00000000	    -44.83393585	      8.15881231	     -1.15618497	     -2.50509874	     82.17332299	    -12.16189055	     26.19383706	     88.78304374	     -9.09260984	      0.00000000	     34.32000000
      3.99000000	     -1.89749084	    -12.35435753	    -13.07371267	      0.00000000	      0.00000000	      0.00000000	    -44.97215874	      8.14104283	     -1.26723530	     -2.51119421	     82.32666551	    -12.22260411	     25.86959246	     88.52585674	     -9.08653902	      0.00000000	     34.32000000
      4.00000000	     -1.84444317	    -12.36923411	    -12.99740344	      0.00000000	      0.00000000	      0.00000000	    -44.98066204	      8.14092804	     -1.28851990	     -2.51301084	     82.31753055	    -12.22919327	     25.84832834	     88.53977996	     -9.10044721	      0.00000000	     34.32000000
      4.01000000	     -1.72089868	    -12.16046905	    -12.95018931	      0.00000000	      0.00000000	      0.00000000	    -45.12548725	      8.24804835	     -1.56381463	     -2.45306262	     82.31003930	    -12.35602864	     25.76575070	     88.59670503	     -9.12390595	      0.00000000	     34.32000000
      4.02000000	     -1.78550041	    -12.10341783	    -12.96779214	      0.00000000	      0.00000000	      0.00000000	    -45.14215489	      8.21390896	     -1.65739991	     -2.48861949	     82.21255921	    -12.37296498	     25.49026881	     88.58521657	     -9.09833483	      0.00000000	     34.32000000
      4.03000000	     -1.72542367	    -12.16867716	    -12.90394498	      0.00000000	      0.00000000	      0.00000000	    -45.14873244	      8.22413440	     -1.70011996	     -2.48650665	     82.17428562	    -12.38606354	     25.40565881	     88.57267348	     -9.11111934	      0.00000000	     34.32000000
      4.04000000	     -1.80884819	    -12.16793410	    -12.96737297	      0.00000000	      0.00000000	      0.00000000	    -45.16981319	      8.19465068	     -1.74408388	     -2.51062889	     82.15325481	    -12.39493519	     24.93093491	     88.46179206	     -9.15094740	      0.00000000	     34.32000000
      4.05000000	     -1.80244173	    -12.10642581	    -12.92321030	      0.00000000	      0.00000000	      0.00000000	    -45.27054093	      8.21587583	     -1.99206463	     -2.51530139	     82.05577716	    -12.48291561	     24.82978985	     88.33155172	     -8.96844825	      0.00000000	     34.32000000
      4.06000000	     -1.70996390	    -12.15795218	    -12.84793590	      0.00000000	      0.00000000	      0.00000000	    -45.28318662	      8.22365342	     -2.04356297	     -2.51523862	     82.01852055	    -12.49909362	     24.77615409	     88.29694884	     -8.98233924	      0.00000000	     34.32000000
      4.07000000	     -1.61819034	    -11.89105547	    -12.79701713	      0.00000000	      0.00000000	      0.00000000	    -45.62810604	      8.36078691	     -2.59617149	     -2.44180531	     82.09465797	    -12.75604575	     24.65244319	     87.93070378	     -8.97497622	      0.00000000	     34.32000000
      4.08000000	     -1.63402301	    -11.76991305	    -12.77302725	      0.00000000	      0.00000000	      0.00000000	    -45.75595667	      8.36979718	     -2.84021270	     -2.45029070	     82.05675559	    -12.85036648	     24.40570729	     87.80448076	     -8.99568771	      0.00000000	     34.32000000
      4.09000000	     -1.63742555	    -11.60544228	    -12.72157547	      0.00000000	      0.00000000	      0.00000000	    -45.85243634	      8.40209612	     -3.03305125	     -2.43973020	     82.02488355	    -12.92974500	     24.02587034	     87.71198502	     -9.04350110	      0.00000000	     34.32000000
      4.10000000	     -1.48468391	    -11.52654416	    -12.66840693	      0.00000000	      0.00000000	      0.00000000	    -45.97396502	      8.53929897	     -3.21058715	     -2.34794137	     82.10333977	    -13.03904118	     23.74723016	     87.65599878	     -9.30220491	      0.00000000	     34.32000000
      4.11000000	     -1.70595532	    -11.32433061	    -12.79375633	      0.00000000	      0.00000000	      0.00000000	    -45.99638768	      8.21141161	     -3.42760689	     -2.61007968	     81.75542995	    -13.01290510	     23.40758876	     87.69960927	     -8.97210675	      0.00000000	     34.32000000
      4.12000000	     -1.58496523	    -11.37144847	    -12.69300831	      0.00000000	      0.00000000	      0.00000000	    -45.99830587	      8.20951725	     -3.46904513	     -2.61700148	     81.70423125	    -13.02139350	     23.32252216	     87.61405486	     -8.98700408	      0.00000000	     34.32000000
      4.13000000	     -1.75163510	    -11.24516448	    -12.68347843	      0.00000000	      0.00000000	      0.00000000	    -46.26284087	      8.24980304	     -3.83853911	     -2.59937729	     81.80858649	    -13.19702075	     22.93946736	     86.79940459	     -8.11057923	      0.00000000	     34.32000000
      4.14000000	     -1.45255943	    -11.29983205	    -12.52340479	      0.00000000	      0.00000000	      0.00000000	    -46.27537397	      8.77891273	     -4.01720060	     -2.24592770	     81.77905717	    -13.36335493	     22.33251652	     87.57957164	    -16.03193394	      0.00000000	     34.32000000
